<svg xmlns="http://www.w3.org/2000/svg" version="1.1" xmlns:xlink="http://www.w3.org/1999/xlink" xmlns:svgjs="http://svgjs.com/svgjs" width="600" height="560" preserveAspectRatio="none" viewBox="0 0 600 560"><g mask="url(&quot;#SvgjsMask1014&quot;)" fill="none"><rect width="600" height="560" x="0" y="0" fill="url(#SvgjsLinearGradient1015)"></rect><path d="M-42.15 397.67L-42.15 397.67" stroke="#132e65" stroke-width="1.5"></path><path d="M-42.15 397.67L20.62 347.56" stroke="#132e65" stroke-width="1.5"></path><path d="M-42.15 397.67L-46.95 482.61" stroke="#132e65" stroke-width="1.5"></path><path d="M-42.15 397.67L53.55 428.57" stroke="#132e65" stroke-width="1.5"></path><path d="M-42.15 397.67L54.1 486.28" stroke="#132e65" stroke-width="1.5"></path><path d="M-46.95 482.61L-46.95 482.61" stroke="#132e65" stroke-width="1.5"></path><path d="M-46.95 482.61L-43.19 564.24" stroke="#132e65" stroke-width="1.5"></path><path d="M-46.95 482.61L54.1 486.28" stroke="#132e65" stroke-width="1.5"></path><path d="M-46.95 482.61L40.01 548.77" stroke="#132e65" stroke-width="1.5"></path><path d="M-43.19 564.24L-43.19 564.24" stroke="#132e65" stroke-width="1.5"></path><path d="M-43.19 564.24L-23.78 630.8" stroke="#132e65" stroke-width="1.5"></path><path d="M-43.19 564.24L40.01 548.77" stroke="#132e65" stroke-width="1.5"></path><path d="M-43.19 564.24L40.53 638.55" stroke="#132e65" stroke-width="1.5"></path><path d="M-23.78 630.8L-23.78 630.8" stroke="#132e65" stroke-width="1.5"></path><path d="M-23.78 630.8L40.53 638.55" stroke="#132e65" stroke-width="1.5"></path><path d="M-23.78 630.8L40.01 548.77" stroke="#132e65" stroke-width="1.5"></path><path d="M20.62 347.56L20.62 347.56" stroke="#132e65" stroke-width="1.5"></path><path d="M20.62 347.56L53.55 428.57" stroke="#132e65" stroke-width="1.5"></path><path d="M20.62 347.56L129.43 341.4" stroke="#132e65" stroke-width="1.5"></path><path d="M53.55 428.57L53.55 428.57" stroke="#132e65" stroke-width="1.5"></path><path d="M53.55 428.57L54.1 486.28" stroke="#132e65" stroke-width="1.5"></path><path d="M53.55 428.57L127.35 406.04" stroke="#132e65" stroke-width="1.5"></path><path d="M54.1 486.28L54.1 486.28" stroke="#132e65" stroke-width="1.5"></path><path d="M54.1 486.28L95.56 502.02" stroke="#132e65" stroke-width="1.5"></path><path d="M40.01 548.77L40.01 548.77" stroke="#132e65" stroke-width="1.5"></path><path d="M40.01 548.77L54.1 486.28" stroke="#132e65" stroke-width="1.5"></path><path d="M40.01 548.77L108.73 567.06" stroke="#132e65" stroke-width="1.5"></path><path d="M40.01 548.77L95.56 502.02" stroke="#132e65" stroke-width="1.5"></path><path d="M40.53 638.55L40.53 638.55" stroke="#132e65" stroke-width="1.5"></path><path d="M40.53 638.55L99.6 627.48" stroke="#132e65" stroke-width="1.5"></path><path d="M40.53 638.55L40.01 548.77" stroke="#132e65" stroke-width="1.5"></path><path d="M40.53 638.55L108.73 567.06" stroke="#132e65" stroke-width="1.5"></path><path d="M129.43 341.4L129.43 341.4" stroke="#132e65" stroke-width="1.5"></path><path d="M129.43 341.4L187.14 356.19" stroke="#132e65" stroke-width="1.5"></path><path d="M129.43 341.4L127.35 406.04" stroke="#132e65" stroke-width="1.5"></path><path d="M127.35 406.04L127.35 406.04" stroke="#132e65" stroke-width="1.5"></path><path d="M95.56 502.02L95.56 502.02" stroke="#132e65" stroke-width="1.5"></path><path d="M95.56 502.02L108.73 567.06" stroke="#132e65" stroke-width="1.5"></path><path d="M95.56 502.02L53.55 428.57" stroke="#132e65" stroke-width="1.5"></path><path d="M108.73 567.06L108.73 567.06" stroke="#132e65" stroke-width="1.5"></path><path d="M108.73 567.06L99.6 627.48" stroke="#132e65" stroke-width="1.5"></path><path d="M108.73 567.06L170.9 580.12" stroke="#132e65" stroke-width="1.5"></path><path d="M99.6 627.48L99.6 627.48" stroke="#132e65" stroke-width="1.5"></path><path d="M99.6 627.48L170.9 580.12" stroke="#132e65" stroke-width="1.5"></path><path d="M99.6 627.48L193.14 629.57" stroke="#132e65" stroke-width="1.5"></path><path d="M99.6 627.48L40.01 548.77" stroke="#132e65" stroke-width="1.5"></path><path d="M187.14 356.19L187.14 356.19" stroke="#132e65" stroke-width="1.5"></path><path d="M201.79 426.44L201.79 426.44" stroke="#132e65" stroke-width="1.5"></path><path d="M201.79 426.44L179.48 489.82" stroke="#132e65" stroke-width="1.5"></path><path d="M201.79 426.44L244.08 483.78" stroke="#132e65" stroke-width="1.5"></path><path d="M201.79 426.44L187.14 356.19" stroke="#132e65" stroke-width="1.5"></path><path d="M201.79 426.44L127.35 406.04" stroke="#132e65" stroke-width="1.5"></path><path d="M201.79 426.44L280.77 420.85" stroke="#132e65" stroke-width="1.5"></path><path d="M179.48 489.82L179.48 489.82" stroke="#132e65" stroke-width="1.5"></path><path d="M179.48 489.82L244.08 483.78" stroke="#132e65" stroke-width="1.5"></path><path d="M179.48 489.82L95.56 502.02" stroke="#132e65" stroke-width="1.5"></path><path d="M179.48 489.82L170.9 580.12" stroke="#132e65" stroke-width="1.5"></path><path d="M179.48 489.82L127.35 406.04" stroke="#132e65" stroke-width="1.5"></path><path d="M179.48 489.82L108.73 567.06" stroke="#132e65" stroke-width="1.5"></path><path d="M170.9 580.12L170.9 580.12" stroke="#132e65" stroke-width="1.5"></path><path d="M170.9 580.12L193.14 629.57" stroke="#132e65" stroke-width="1.5"></path><path d="M170.9 580.12L246.44 578.14" stroke="#132e65" stroke-width="1.5"></path><path d="M193.14 629.57L193.14 629.57" stroke="#132e65" stroke-width="1.5"></path><path d="M193.14 629.57L246.44 578.14" stroke="#132e65" stroke-width="1.5"></path><path d="M193.14 629.57L275.17 639.97" stroke="#132e65" stroke-width="1.5"></path><path d="M267.06 252.82L267.06 252.82" stroke="#132e65" stroke-width="1.5"></path><path d="M267.06 252.82L276.85 322.87" stroke="#132e65" stroke-width="1.5"></path><path d="M267.06 252.82L350.07 277.75" stroke="#132e65" stroke-width="1.5"></path><path d="M267.06 252.82L322.35 177.72" stroke="#132e65" stroke-width="1.5"></path><path d="M267.06 252.82L325.22 341.94" stroke="#132e65" stroke-width="1.5"></path><path d="M267.06 252.82L395.36 252.3" stroke="#132e65" stroke-width="1.5"></path><path d="M276.85 322.87L276.85 322.87" stroke="#132e65" stroke-width="1.5"></path><path d="M276.85 322.87L325.22 341.94" stroke="#132e65" stroke-width="1.5"></path><path d="M280.77 420.85L280.77 420.85" stroke="#132e65" stroke-width="1.5"></path><path d="M280.77 420.85L244.08 483.78" stroke="#132e65" stroke-width="1.5"></path><path d="M280.77 420.85L325.22 341.94" stroke="#132e65" stroke-width="1.5"></path><path d="M244.08 483.78L244.08 483.78" stroke="#132e65" stroke-width="1.5"></path><path d="M244.08 483.78L246.44 578.14" stroke="#132e65" stroke-width="1.5"></path><path d="M246.44 578.14L246.44 578.14" stroke="#132e65" stroke-width="1.5"></path><path d="M246.44 578.14L275.17 639.97" stroke="#132e65" stroke-width="1.5"></path><path d="M275.17 639.97L275.17 639.97" stroke="#132e65" stroke-width="1.5"></path><path d="M275.17 639.97L353.94 654.47" stroke="#132e65" stroke-width="1.5"></path><path d="M275.17 639.97L329.06 571.73" stroke="#132e65" stroke-width="1.5"></path><path d="M275.17 639.97L170.9 580.12" stroke="#132e65" stroke-width="1.5"></path><path d="M275.17 639.97L407.95 649.81" stroke="#132e65" stroke-width="1.5"></path><path d="M322.35 177.72L322.35 177.72" stroke="#132e65" stroke-width="1.5"></path><path d="M322.35 177.72L399.73 197.11" stroke="#132e65" stroke-width="1.5"></path><path d="M322.35 177.72L394.98 130.77" stroke="#132e65" stroke-width="1.5"></path><path d="M350.07 277.75L350.07 277.75" stroke="#132e65" stroke-width="1.5"></path><path d="M350.07 277.75L395.36 252.3" stroke="#132e65" stroke-width="1.5"></path><path d="M350.07 277.75L325.22 341.94" stroke="#132e65" stroke-width="1.5"></path><path d="M350.07 277.75L276.85 322.87" stroke="#132e65" stroke-width="1.5"></path><path d="M325.22 341.94L325.22 341.94" stroke="#132e65" stroke-width="1.5"></path><path d="M325.22 341.94L419.41 352.13" stroke="#132e65" stroke-width="1.5"></path><path d="M351.16 505.33L351.16 505.33" stroke="#132e65" stroke-width="1.5"></path><path d="M351.16 505.33L329.06 571.73" stroke="#132e65" stroke-width="1.5"></path><path d="M351.16 505.33L412.92 470.18" stroke="#132e65" stroke-width="1.5"></path><path d="M351.16 505.33L426.91 554" stroke="#132e65" stroke-width="1.5"></path><path d="M351.16 505.33L413.33 424.77" stroke="#132e65" stroke-width="1.5"></path><path d="M329.06 571.73L329.06 571.73" stroke="#132e65" stroke-width="1.5"></path><path d="M329.06 571.73L246.44 578.14" stroke="#132e65" stroke-width="1.5"></path><path d="M329.06 571.73L353.94 654.47" stroke="#132e65" stroke-width="1.5"></path><path d="M329.06 571.73L426.91 554" stroke="#132e65" stroke-width="1.5"></path><path d="M353.94 654.47L353.94 654.47" stroke="#132e65" stroke-width="1.5"></path><path d="M353.94 654.47L407.95 649.81" stroke="#132e65" stroke-width="1.5"></path><path d="M353.94 654.47L473.67 625.93" stroke="#132e65" stroke-width="1.5"></path><path d="M353.94 654.47L426.91 554" stroke="#132e65" stroke-width="1.5"></path><path d="M353.94 654.47L246.44 578.14" stroke="#132e65" stroke-width="1.5"></path><path d="M428.63 -54L428.63 -54" stroke="#132e65" stroke-width="1.5"></path><path d="M428.63 -54L484.87 -37.02" stroke="#132e65" stroke-width="1.5"></path><path d="M428.63 -54L402.47 20.27" stroke="#132e65" stroke-width="1.5"></path><path d="M428.63 -54L474.67 42.03" stroke="#132e65" stroke-width="1.5"></path><path d="M428.63 -54L566.07 -50.02" stroke="#132e65" stroke-width="1.5"></path><path d="M428.63 -54L545.86 39.39" stroke="#132e65" stroke-width="1.5"></path><path d="M428.63 -54L504.49 96.34" stroke="#132e65" stroke-width="1.5"></path><path d="M402.47 20.27L402.47 20.27" stroke="#132e65" stroke-width="1.5"></path><path d="M402.47 20.27L474.67 42.03" stroke="#132e65" stroke-width="1.5"></path><path d="M394.98 130.77L394.98 130.77" stroke="#132e65" stroke-width="1.5"></path><path d="M394.98 130.77L399.73 197.11" stroke="#132e65" stroke-width="1.5"></path><path d="M394.98 130.77L477.52 172.21" stroke="#132e65" stroke-width="1.5"></path><path d="M394.98 130.77L402.47 20.27" stroke="#132e65" stroke-width="1.5"></path><path d="M399.73 197.11L399.73 197.11" stroke="#132e65" stroke-width="1.5"></path><path d="M399.73 197.11L395.36 252.3" stroke="#132e65" stroke-width="1.5"></path><path d="M395.36 252.3L395.36 252.3" stroke="#132e65" stroke-width="1.5"></path><path d="M395.36 252.3L419.41 352.13" stroke="#132e65" stroke-width="1.5"></path><path d="M395.36 252.3L322.35 177.72" stroke="#132e65" stroke-width="1.5"></path><path d="M395.36 252.3L499.6 277.64" stroke="#132e65" stroke-width="1.5"></path><path d="M419.41 352.13L419.41 352.13" stroke="#132e65" stroke-width="1.5"></path><path d="M419.41 352.13L478.36 353.05" stroke="#132e65" stroke-width="1.5"></path><path d="M419.41 352.13L413.33 424.77" stroke="#132e65" stroke-width="1.5"></path><path d="M419.41 352.13L475.41 407.44" stroke="#132e65" stroke-width="1.5"></path><path d="M413.33 424.77L413.33 424.77" stroke="#132e65" stroke-width="1.5"></path><path d="M413.33 424.77L412.92 470.18" stroke="#132e65" stroke-width="1.5"></path><path d="M413.33 424.77L475.41 407.44" stroke="#132e65" stroke-width="1.5"></path><path d="M413.33 424.77L475.96 490.65" stroke="#132e65" stroke-width="1.5"></path><path d="M413.33 424.77L478.36 353.05" stroke="#132e65" stroke-width="1.5"></path><path d="M412.92 470.18L412.92 470.18" stroke="#132e65" stroke-width="1.5"></path><path d="M412.92 470.18L475.96 490.65" stroke="#132e65" stroke-width="1.5"></path><path d="M426.91 554L426.91 554" stroke="#132e65" stroke-width="1.5"></path><path d="M426.91 554L472.01 561.51" stroke="#132e65" stroke-width="1.5"></path><path d="M426.91 554L475.96 490.65" stroke="#132e65" stroke-width="1.5"></path><path d="M426.91 554L412.92 470.18" stroke="#132e65" stroke-width="1.5"></path><path d="M426.91 554L473.67 625.93" stroke="#132e65" stroke-width="1.5"></path><path d="M407.95 649.81L407.95 649.81" stroke="#132e65" stroke-width="1.5"></path><path d="M407.95 649.81L473.67 625.93" stroke="#132e65" stroke-width="1.5"></path><path d="M407.95 649.81L426.91 554" stroke="#132e65" stroke-width="1.5"></path><path d="M484.87 -37.02L484.87 -37.02" stroke="#132e65" stroke-width="1.5"></path><path d="M484.87 -37.02L474.67 42.03" stroke="#132e65" stroke-width="1.5"></path><path d="M484.87 -37.02L566.07 -50.02" stroke="#132e65" stroke-width="1.5"></path><path d="M484.87 -37.02L545.86 39.39" stroke="#132e65" stroke-width="1.5"></path><path d="M474.67 42.03L474.67 42.03" stroke="#132e65" stroke-width="1.5"></path><path d="M474.67 42.03L504.49 96.34" stroke="#132e65" stroke-width="1.5"></path><path d="M474.67 42.03L545.86 39.39" stroke="#132e65" stroke-width="1.5"></path><path d="M504.49 96.34L504.49 96.34" stroke="#132e65" stroke-width="1.5"></path><path d="M504.49 96.34L545.86 39.39" stroke="#132e65" stroke-width="1.5"></path><path d="M504.49 96.34L574.13 126.94" stroke="#132e65" stroke-width="1.5"></path><path d="M477.52 172.21L477.52 172.21" stroke="#132e65" stroke-width="1.5"></path><path d="M477.52 172.21L504.49 96.34" stroke="#132e65" stroke-width="1.5"></path><path d="M477.52 172.21L399.73 197.11" stroke="#132e65" stroke-width="1.5"></path><path d="M499.6 277.64L499.6 277.64" stroke="#132e65" stroke-width="1.5"></path><path d="M499.6 277.64L562.91 279.19" stroke="#132e65" stroke-width="1.5"></path><path d="M499.6 277.64L549.07 324.67" stroke="#132e65" stroke-width="1.5"></path><path d="M499.6 277.64L478.36 353.05" stroke="#132e65" stroke-width="1.5"></path><path d="M478.36 353.05L478.36 353.05" stroke="#132e65" stroke-width="1.5"></path><path d="M478.36 353.05L475.41 407.44" stroke="#132e65" stroke-width="1.5"></path><path d="M478.36 353.05L549.07 324.67" stroke="#132e65" stroke-width="1.5"></path><path d="M478.36 353.05L562.91 279.19" stroke="#132e65" stroke-width="1.5"></path><path d="M475.41 407.44L475.41 407.44" stroke="#132e65" stroke-width="1.5"></path><path d="M475.41 407.44L475.96 490.65" stroke="#132e65" stroke-width="1.5"></path><path d="M475.96 490.65L475.96 490.65" stroke="#132e65" stroke-width="1.5"></path><path d="M475.96 490.65L472.01 561.51" stroke="#132e65" stroke-width="1.5"></path><path d="M475.96 490.65L563.38 487.27" stroke="#132e65" stroke-width="1.5"></path><path d="M472.01 561.51L472.01 561.51" stroke="#132e65" stroke-width="1.5"></path><path d="M472.01 561.51L473.67 625.93" stroke="#132e65" stroke-width="1.5"></path><path d="M472.01 561.51L412.92 470.18" stroke="#132e65" stroke-width="1.5"></path><path d="M472.01 561.51L580.8 556.17" stroke="#132e65" stroke-width="1.5"></path><path d="M472.01 561.51L407.95 649.81" stroke="#132e65" stroke-width="1.5"></path><path d="M473.67 625.93L473.67 625.93" stroke="#132e65" stroke-width="1.5"></path><path d="M566.07 -50.02L566.07 -50.02" stroke="#132e65" stroke-width="1.5"></path><path d="M566.07 -50.02L545.86 39.39" stroke="#132e65" stroke-width="1.5"></path><path d="M566.07 -50.02L638.34 26.92" stroke="#132e65" stroke-width="1.5"></path><path d="M566.07 -50.02L474.67 42.03" stroke="#132e65" stroke-width="1.5"></path><path d="M545.86 39.39L545.86 39.39" stroke="#132e65" stroke-width="1.5"></path><path d="M545.86 39.39L574.13 126.94" stroke="#132e65" stroke-width="1.5"></path><path d="M545.86 39.39L638.34 26.92" stroke="#132e65" stroke-width="1.5"></path><path d="M574.13 126.94L574.13 126.94" stroke="#132e65" stroke-width="1.5"></path><path d="M574.13 126.94L579.8 190.81" stroke="#132e65" stroke-width="1.5"></path><path d="M574.13 126.94L649.47 97.72" stroke="#132e65" stroke-width="1.5"></path><path d="M579.8 190.81L579.8 190.81" stroke="#132e65" stroke-width="1.5"></path><path d="M579.8 190.81L629.53 255.94" stroke="#132e65" stroke-width="1.5"></path><path d="M579.8 190.81L562.91 279.19" stroke="#132e65" stroke-width="1.5"></path><path d="M579.8 190.81L477.52 172.21" stroke="#132e65" stroke-width="1.5"></path><path d="M579.8 190.81L649.47 97.72" stroke="#132e65" stroke-width="1.5"></path><path d="M579.8 190.81L499.6 277.64" stroke="#132e65" stroke-width="1.5"></path><path d="M562.91 279.19L562.91 279.19" stroke="#132e65" stroke-width="1.5"></path><path d="M562.91 279.19L549.07 324.67" stroke="#132e65" stroke-width="1.5"></path><path d="M562.91 279.19L629.53 255.94" stroke="#132e65" stroke-width="1.5"></path><path d="M549.07 324.67L549.07 324.67" stroke="#132e65" stroke-width="1.5"></path><path d="M549.07 324.67L623.95 327.23" stroke="#132e65" stroke-width="1.5"></path><path d="M567.9 429.46L567.9 429.46" stroke="#132e65" stroke-width="1.5"></path><path d="M567.9 429.46L563.38 487.27" stroke="#132e65" stroke-width="1.5"></path><path d="M567.9 429.46L632.58 409.22" stroke="#132e65" stroke-width="1.5"></path><path d="M567.9 429.46L622.73 495.42" stroke="#132e65" stroke-width="1.5"></path><path d="M563.38 487.27L563.38 487.27" stroke="#132e65" stroke-width="1.5"></path><path d="M563.38 487.27L622.73 495.42" stroke="#132e65" stroke-width="1.5"></path><path d="M563.38 487.27L580.8 556.17" stroke="#132e65" stroke-width="1.5"></path><path d="M563.38 487.27L632.58 409.22" stroke="#132e65" stroke-width="1.5"></path><path d="M580.8 556.17L580.8 556.17" stroke="#132e65" stroke-width="1.5"></path><path d="M580.8 556.17L622.73 495.42" stroke="#132e65" stroke-width="1.5"></path><path d="M580.8 556.17L570.58 631.07" stroke="#132e65" stroke-width="1.5"></path><path d="M570.58 631.07L570.58 631.07" stroke="#132e65" stroke-width="1.5"></path><path d="M570.58 631.07L623.12 628.76" stroke="#132e65" stroke-width="1.5"></path><path d="M570.58 631.07L473.67 625.93" stroke="#132e65" stroke-width="1.5"></path><path d="M570.58 631.07L472.01 561.51" stroke="#132e65" stroke-width="1.5"></path><path d="M570.58 631.07L563.38 487.27" stroke="#132e65" stroke-width="1.5"></path><path d="M570.58 631.07L622.73 495.42" stroke="#132e65" stroke-width="1.5"></path><path d="M638.34 26.92L638.34 26.92" stroke="#132e65" stroke-width="1.5"></path><path d="M638.34 26.92L649.47 97.72" stroke="#132e65" stroke-width="1.5"></path><path d="M649.47 97.72L649.47 97.72" stroke="#132e65" stroke-width="1.5"></path><path d="M649.47 97.72L545.86 39.39" stroke="#132e65" stroke-width="1.5"></path><path d="M649.47 97.72L504.49 96.34" stroke="#132e65" stroke-width="1.5"></path><path d="M629.53 255.94L629.53 255.94" stroke="#132e65" stroke-width="1.5"></path><path d="M629.53 255.94L623.95 327.23" stroke="#132e65" stroke-width="1.5"></path><path d="M629.53 255.94L549.07 324.67" stroke="#132e65" stroke-width="1.5"></path><path d="M623.95 327.23L623.95 327.23" stroke="#132e65" stroke-width="1.5"></path><path d="M623.95 327.23L562.91 279.19" stroke="#132e65" stroke-width="1.5"></path><path d="M632.58 409.22L632.58 409.22" stroke="#132e65" stroke-width="1.5"></path><path d="M632.58 409.22L623.95 327.23" stroke="#132e65" stroke-width="1.5"></path><path d="M632.58 409.22L622.73 495.42" stroke="#132e65" stroke-width="1.5"></path><path d="M632.58 409.22L549.07 324.67" stroke="#132e65" stroke-width="1.5"></path><path d="M632.58 409.22L562.91 279.19" stroke="#132e65" stroke-width="1.5"></path><path d="M622.73 495.42L622.73 495.42" stroke="#132e65" stroke-width="1.5"></path><path d="M622.73 495.42L623.12 628.76" stroke="#132e65" stroke-width="1.5"></path><path d="M623.12 628.76L623.12 628.76" stroke="#132e65" stroke-width="1.5"></path><path d="M623.12 628.76L580.8 556.17" stroke="#132e65" stroke-width="1.5"></path><path d="M623.12 628.76L473.67 625.93" stroke="#132e65" stroke-width="1.5"></path><path d="M623.12 628.76L563.38 487.27" stroke="#132e65" stroke-width="1.5"></path><circle r="5" cx="-42.15" cy="397.67" fill="#132e65"></circle><circle r="5" cx="-46.95" cy="482.61" fill="#132e65"></circle><circle r="5" cx="-43.19" cy="564.24" fill="#132e65"></circle><circle r="5" cx="-23.78" cy="630.8" fill="#132e65"></circle><circle r="5" cx="20.62" cy="347.56" fill="#132e65"></circle><circle r="5" cx="53.55" cy="428.57" fill="#132e65"></circle><circle r="5" cx="54.1" cy="486.28" fill="#132e65"></circle><circle r="5" cx="40.01" cy="548.77" fill="#132e65"></circle><circle r="5" cx="40.53" cy="638.55" fill="#132e65"></circle><circle r="5" cx="129.43" cy="341.4" fill="#132e65"></circle><circle r="5" cx="127.35" cy="406.04" fill="#132e65"></circle><circle r="5" cx="95.56" cy="502.02" fill="#132e65"></circle><circle r="5" cx="108.73" cy="567.06" fill="#132e65"></circle><circle r="5" cx="99.6" cy="627.48" fill="#132e65"></circle><circle r="5" cx="187.14" cy="356.19" fill="#132e65"></circle><circle r="5" cx="201.79" cy="426.44" fill="#132e65"></circle><circle r="5" cx="179.48" cy="489.82" fill="#132e65"></circle><circle r="5" cx="170.9" cy="580.12" fill="#132e65"></circle><circle r="5" cx="193.14" cy="629.57" fill="#132e65"></circle><circle r="5" cx="267.06" cy="252.82" fill="#132e65"></circle><circle r="5" cx="276.85" cy="322.87" fill="#132e65"></circle><circle r="5" cx="280.77" cy="420.85" fill="#132e65"></circle><circle r="5" cx="244.08" cy="483.78" fill="#132e65"></circle><circle r="5" cx="246.44" cy="578.14" fill="#132e65"></circle><circle r="5" cx="275.17" cy="639.97" fill="#132e65"></circle><circle r="5" cx="322.35" cy="177.72" fill="#132e65"></circle><circle r="5" cx="350.07" cy="277.75" fill="#132e65"></circle><circle r="5" cx="325.22" cy="341.94" fill="#132e65"></circle><circle r="5" cx="351.16" cy="505.33" fill="#132e65"></circle><circle r="5" cx="329.06" cy="571.73" fill="#132e65"></circle><circle r="5" cx="353.94" cy="654.47" fill="#132e65"></circle><circle r="5" cx="428.63" cy="-54" fill="#132e65"></circle><circle r="5" cx="402.47" cy="20.27" fill="#132e65"></circle><circle r="5" cx="394.98" cy="130.77" fill="#132e65"></circle><circle r="5" cx="399.73" cy="197.11" fill="#132e65"></circle><circle r="5" cx="395.36" cy="252.3" fill="#132e65"></circle><circle r="5" cx="419.41" cy="352.13" fill="#132e65"></circle><circle r="5" cx="413.33" cy="424.77" fill="#132e65"></circle><circle r="5" cx="412.92" cy="470.18" fill="#132e65"></circle><circle r="5" cx="426.91" cy="554" fill="#132e65"></circle><circle r="5" cx="407.95" cy="649.81" fill="#132e65"></circle><circle r="5" cx="484.87" cy="-37.02" fill="#132e65"></circle><circle r="5" cx="474.67" cy="42.03" fill="#132e65"></circle><circle r="5" cx="504.49" cy="96.34" fill="#132e65"></circle><circle r="5" cx="477.52" cy="172.21" fill="#132e65"></circle><circle r="5" cx="499.6" cy="277.64" fill="#132e65"></circle><circle r="5" cx="478.36" cy="353.05" fill="#132e65"></circle><circle r="5" cx="475.41" cy="407.44" fill="#132e65"></circle><circle r="5" cx="475.96" cy="490.65" fill="#132e65"></circle><circle r="5" cx="472.01" cy="561.51" fill="#132e65"></circle><circle r="5" cx="473.67" cy="625.93" fill="#132e65"></circle><circle r="5" cx="566.07" cy="-50.02" fill="#132e65"></circle><circle r="5" cx="545.86" cy="39.39" fill="#132e65"></circle><circle r="5" cx="574.13" cy="126.94" fill="#132e65"></circle><circle r="5" cx="579.8" cy="190.81" fill="#132e65"></circle><circle r="5" cx="562.91" cy="279.19" fill="#132e65"></circle><circle r="5" cx="549.07" cy="324.67" fill="#132e65"></circle><circle r="5" cx="567.9" cy="429.46" fill="#132e65"></circle><circle r="5" cx="563.38" cy="487.27" fill="#132e65"></circle><circle r="5" cx="580.8" cy="556.17" fill="#132e65"></circle><circle r="5" cx="570.58" cy="631.07" fill="#132e65"></circle><circle r="5" cx="638.34" cy="26.92" fill="#132e65"></circle><circle r="5" cx="649.47" cy="97.72" fill="#132e65"></circle><circle r="5" cx="629.53" cy="255.94" fill="#132e65"></circle><circle r="5" cx="623.95" cy="327.23" fill="#132e65"></circle><circle r="5" cx="632.58" cy="409.22" fill="#132e65"></circle><circle r="5" cx="622.73" cy="495.42" fill="#132e65"></circle><circle r="5" cx="623.12" cy="628.76" fill="#132e65"></circle><path d="M-47.1 634.13L-47.1 634.13" stroke="hsl(228.5, 77.2%, 51.5%)" stroke-width="1.5"></path><path d="M-47.1 634.13L-48.36 562.58" stroke="hsl(228.5, 77.2%, 51.5%)" stroke-width="1.5"></path><path d="M-47.1 634.13L35.26 580.36" stroke="hsl(228.5, 77.2%, 51.5%)" stroke-width="1.5"></path><path d="M-47.1 634.13L53.26 625.57" stroke="hsl(228.5, 77.2%, 51.5%)" stroke-width="1.5"></path><path d="M-47.1 634.13L104.78 632.88" stroke="hsl(228.5, 77.2%, 51.5%)" stroke-width="1.5"></path><path d="M-47.1 634.13L-49 470.41" stroke="hsl(228.5, 77.2%, 51.5%)" stroke-width="1.5"></path><path d="M130.52 479.32L130.52 479.32" stroke="hsl(228.5, 77.2%, 51.5%)" stroke-width="1.5"></path><path d="M130.52 479.32L204.15 473.36" stroke="hsl(228.5, 77.2%, 51.5%)" stroke-width="1.5"></path><path d="M264.61 544.36L264.61 544.36" stroke="hsl(228.5, 77.2%, 51.5%)" stroke-width="1.5"></path><path d="M264.61 544.36L246.8 479.11" stroke="hsl(228.5, 77.2%, 51.5%)" stroke-width="1.5"></path><path d="M264.61 544.36L330.48 571.32" stroke="hsl(228.5, 77.2%, 51.5%)" stroke-width="1.5"></path><path d="M264.61 544.36L321.33 492.47" stroke="hsl(228.5, 77.2%, 51.5%)" stroke-width="1.5"></path><path d="M264.61 544.36L256.62 628.05" stroke="hsl(228.5, 77.2%, 51.5%)" stroke-width="1.5"></path><path d="M344.17 339.42L344.17 339.42" stroke="hsl(228.5, 77.2%, 51.5%)" stroke-width="1.5"></path><path d="M344.17 339.42L337.5 427.65" stroke="hsl(228.5, 77.2%, 51.5%)" stroke-width="1.5"></path><path d="M344.17 339.42L420.26 397.16" stroke="hsl(228.5, 77.2%, 51.5%)" stroke-width="1.5"></path><path d="M337.5 427.65L337.5 427.65" stroke="hsl(228.5, 77.2%, 51.5%)" stroke-width="1.5"></path><path d="M337.5 427.65L321.33 492.47" stroke="hsl(228.5, 77.2%, 51.5%)" stroke-width="1.5"></path><path d="M337.5 427.65L262.55 416" stroke="hsl(228.5, 77.2%, 51.5%)" stroke-width="1.5"></path><path d="M498.95 -22.6L498.95 -22.6" stroke="hsl(228.5, 77.2%, 51.5%)" stroke-width="1.5"></path><path d="M498.95 -22.6L484.1 44.78" stroke="hsl(228.5, 77.2%, 51.5%)" stroke-width="1.5"></path><path d="M498.95 -22.6L575.55 -27.6" stroke="hsl(228.5, 77.2%, 51.5%)" stroke-width="1.5"></path><path d="M498.95 -22.6L557.41 54.88" stroke="hsl(228.5, 77.2%, 51.5%)" stroke-width="1.5"></path><path d="M498.95 -22.6L473.09 94.69" stroke="hsl(228.5, 77.2%, 51.5%)" stroke-width="1.5"></path><path d="M492.94 186.62L492.94 186.62" stroke="hsl(228.5, 77.2%, 51.5%)" stroke-width="1.5"></path><path d="M492.94 186.62L558.15 172.54" stroke="hsl(228.5, 77.2%, 51.5%)" stroke-width="1.5"></path><path d="M492.94 186.62L478.02 261.7" stroke="hsl(228.5, 77.2%, 51.5%)" stroke-width="1.5"></path><path d="M506.11 324.11L506.11 324.11" stroke="hsl(228.5, 77.2%, 51.5%)" stroke-width="1.5"></path><path d="M506.11 324.11L478.02 261.7" stroke="hsl(228.5, 77.2%, 51.5%)" stroke-width="1.5"></path><path d="M506.11 324.11L501.9 395.67" stroke="hsl(228.5, 77.2%, 51.5%)" stroke-width="1.5"></path><path d="M506.11 324.11L570.78 264.17" stroke="hsl(228.5, 77.2%, 51.5%)" stroke-width="1.5"></path><path d="M506.11 324.11L555.96 407.19" stroke="hsl(228.5, 77.2%, 51.5%)" stroke-width="1.5"></path><path d="M473.57 478.11L473.57 478.11" stroke="hsl(228.5, 77.2%, 51.5%)" stroke-width="1.5"></path><path d="M473.57 478.11L400.51 500.97" stroke="hsl(228.5, 77.2%, 51.5%)" stroke-width="1.5"></path><path d="M473.57 478.11L556.14 479.89" stroke="hsl(228.5, 77.2%, 51.5%)" stroke-width="1.5"></path><path d="M473.57 478.11L501.9 395.67" stroke="hsl(228.5, 77.2%, 51.5%)" stroke-width="1.5"></path><path d="M565.84 122.7L565.84 122.7" stroke="hsl(228.5, 77.2%, 51.5%)" stroke-width="1.5"></path><path d="M565.84 122.7L558.15 172.54" stroke="hsl(228.5, 77.2%, 51.5%)" stroke-width="1.5"></path><path d="M565.84 122.7L624.08 99.24" stroke="hsl(228.5, 77.2%, 51.5%)" stroke-width="1.5"></path><path d="M565.84 122.7L557.41 54.88" stroke="hsl(228.5, 77.2%, 51.5%)" stroke-width="1.5"></path><path d="M565.84 122.7L473.09 94.69" stroke="hsl(228.5, 77.2%, 51.5%)" stroke-width="1.5"></path><path d="M570.78 264.17L570.78 264.17" stroke="hsl(228.5, 77.2%, 51.5%)" stroke-width="1.5"></path><path d="M570.78 264.17L627.46 204.3" stroke="hsl(228.5, 77.2%, 51.5%)" stroke-width="1.5"></path><path d="M570.78 264.17L655.06 276.34" stroke="hsl(228.5, 77.2%, 51.5%)" stroke-width="1.5"></path><path d="M556.14 479.89L556.14 479.89" stroke="hsl(228.5, 77.2%, 51.5%)" stroke-width="1.5"></path><path d="M556.14 479.89L555.96 407.19" stroke="hsl(228.5, 77.2%, 51.5%)" stroke-width="1.5"></path><path d="M556.14 479.89L643.98 502.62" stroke="hsl(228.5, 77.2%, 51.5%)" stroke-width="1.5"></path><path d="M556.14 479.89L501.9 395.67" stroke="hsl(228.5, 77.2%, 51.5%)" stroke-width="1.5"></path><path d="M629.67 -53.1L629.67 -53.1" stroke="hsl(228.5, 77.2%, 51.5%)" stroke-width="1.5"></path><path d="M629.67 -53.1L575.55 -27.6" stroke="hsl(228.5, 77.2%, 51.5%)" stroke-width="1.5"></path><path d="M629.67 -53.1L637.57 52.02" stroke="hsl(228.5, 77.2%, 51.5%)" stroke-width="1.5"></path><path d="M629.67 -53.1L557.41 54.88" stroke="hsl(228.5, 77.2%, 51.5%)" stroke-width="1.5"></path><path d="M629.67 -53.1L498.95 -22.6" stroke="hsl(228.5, 77.2%, 51.5%)" stroke-width="1.5"></path><path d="M629.67 -53.1L624.08 99.24" stroke="hsl(228.5, 77.2%, 51.5%)" stroke-width="1.5"></path><path d="M637.57 52.02L637.57 52.02" stroke="hsl(228.5, 77.2%, 51.5%)" stroke-width="1.5"></path><path d="M637.57 52.02L624.08 99.24" stroke="hsl(228.5, 77.2%, 51.5%)" stroke-width="1.5"></path><path d="M637.57 52.02L557.41 54.88" stroke="hsl(228.5, 77.2%, 51.5%)" stroke-width="1.5"></path><path d="M637.57 52.02L565.84 122.7" stroke="hsl(228.5, 77.2%, 51.5%)" stroke-width="1.5"></path><path d="M655.06 276.34L655.06 276.34" stroke="hsl(228.5, 77.2%, 51.5%)" stroke-width="1.5"></path><path d="M655.06 276.34L637.85 338.64" stroke="hsl(228.5, 77.2%, 51.5%)" stroke-width="1.5"></path><path d="M655.06 276.34L627.46 204.3" stroke="hsl(228.5, 77.2%, 51.5%)" stroke-width="1.5"></path><path d="M618.8 560.1L618.8 560.1" stroke="hsl(228.5, 77.2%, 51.5%)" stroke-width="1.5"></path><path d="M618.8 560.1L572.47 580.8" stroke="hsl(228.5, 77.2%, 51.5%)" stroke-width="1.5"></path><path d="M618.8 560.1L643.98 502.62" stroke="hsl(228.5, 77.2%, 51.5%)" stroke-width="1.5"></path><path d="M618.8 560.1L644.31 640.71" stroke="hsl(228.5, 77.2%, 51.5%)" stroke-width="1.5"></path><path d="M644.31 640.71L644.31 640.71" stroke="hsl(228.5, 77.2%, 51.5%)" stroke-width="1.5"></path><path d="M644.31 640.71L568.05 651.2" stroke="hsl(228.5, 77.2%, 51.5%)" stroke-width="1.5"></path><path d="M644.31 640.71L572.47 580.8" stroke="hsl(228.5, 77.2%, 51.5%)" stroke-width="1.5"></path><path d="M644.31 640.71L643.98 502.62" stroke="hsl(228.5, 77.2%, 51.5%)" stroke-width="1.5"></path><path d="M-49 470.41L-49 470.41" stroke="hsl(228.5, 77.2%, 51.5%)" stroke-width="1.5"></path><path d="M-49 470.41L30.34 475.76" stroke="hsl(228.5, 77.2%, 51.5%)" stroke-width="1.5"></path><path d="M-49 470.41L-48.36 562.58" stroke="hsl(228.5, 77.2%, 51.5%)" stroke-width="1.5"></path><path d="M-49 470.41L35.26 580.36" stroke="hsl(228.5, 77.2%, 51.5%)" stroke-width="1.5"></path><path d="M-49 470.41L130.52 479.32" stroke="hsl(228.5, 77.2%, 51.5%)" stroke-width="1.5"></path><path d="M-49 470.41L53.26 625.57" stroke="hsl(228.5, 77.2%, 51.5%)" stroke-width="1.5"></path><path d="M-48.36 562.58L-48.36 562.58" stroke="hsl(228.5, 77.2%, 51.5%)" stroke-width="1.5"></path><path d="M-48.36 562.58L35.26 580.36" stroke="hsl(228.5, 77.2%, 51.5%)" stroke-width="1.5"></path><path d="M-48.36 562.58L30.34 475.76" stroke="hsl(228.5, 77.2%, 51.5%)" stroke-width="1.5"></path><path d="M-48.36 562.58L53.26 625.57" stroke="hsl(228.5, 77.2%, 51.5%)" stroke-width="1.5"></path><path d="M30.34 475.76L30.34 475.76" stroke="hsl(228.5, 77.2%, 51.5%)" stroke-width="1.5"></path><path d="M30.34 475.76L130.52 479.32" stroke="hsl(228.5, 77.2%, 51.5%)" stroke-width="1.5"></path><path d="M30.34 475.76L35.26 580.36" stroke="hsl(228.5, 77.2%, 51.5%)" stroke-width="1.5"></path><path d="M30.34 475.76L111.22 569.62" stroke="hsl(228.5, 77.2%, 51.5%)" stroke-width="1.5"></path><path d="M35.26 580.36L35.26 580.36" stroke="hsl(228.5, 77.2%, 51.5%)" stroke-width="1.5"></path><path d="M35.26 580.36L53.26 625.57" stroke="hsl(228.5, 77.2%, 51.5%)" stroke-width="1.5"></path><path d="M35.26 580.36L111.22 569.62" stroke="hsl(228.5, 77.2%, 51.5%)" stroke-width="1.5"></path><path d="M53.26 625.57L53.26 625.57" stroke="hsl(228.5, 77.2%, 51.5%)" stroke-width="1.5"></path><path d="M53.26 625.57L104.78 632.88" stroke="hsl(228.5, 77.2%, 51.5%)" stroke-width="1.5"></path><path d="M53.26 625.57L111.22 569.62" stroke="hsl(228.5, 77.2%, 51.5%)" stroke-width="1.5"></path><path d="M111.22 569.62L111.22 569.62" stroke="hsl(228.5, 77.2%, 51.5%)" stroke-width="1.5"></path><path d="M111.22 569.62L173.78 579.68" stroke="hsl(228.5, 77.2%, 51.5%)" stroke-width="1.5"></path><path d="M111.22 569.62L104.78 632.88" stroke="hsl(228.5, 77.2%, 51.5%)" stroke-width="1.5"></path><path d="M111.22 569.62L130.52 479.32" stroke="hsl(228.5, 77.2%, 51.5%)" stroke-width="1.5"></path><path d="M111.22 569.62L194.83 637.11" stroke="hsl(228.5, 77.2%, 51.5%)" stroke-width="1.5"></path><path d="M104.78 632.88L104.78 632.88" stroke="hsl(228.5, 77.2%, 51.5%)" stroke-width="1.5"></path><path d="M197.7 430.47L197.7 430.47" stroke="hsl(228.5, 77.2%, 51.5%)" stroke-width="1.5"></path><path d="M197.7 430.47L204.15 473.36" stroke="hsl(228.5, 77.2%, 51.5%)" stroke-width="1.5"></path><path d="M197.7 430.47L262.55 416" stroke="hsl(228.5, 77.2%, 51.5%)" stroke-width="1.5"></path><path d="M197.7 430.47L246.8 479.11" stroke="hsl(228.5, 77.2%, 51.5%)" stroke-width="1.5"></path><path d="M197.7 430.47L130.52 479.32" stroke="hsl(228.5, 77.2%, 51.5%)" stroke-width="1.5"></path><path d="M204.15 473.36L204.15 473.36" stroke="hsl(228.5, 77.2%, 51.5%)" stroke-width="1.5"></path><path d="M204.15 473.36L246.8 479.11" stroke="hsl(228.5, 77.2%, 51.5%)" stroke-width="1.5"></path><path d="M173.78 579.68L173.78 579.68" stroke="hsl(228.5, 77.2%, 51.5%)" stroke-width="1.5"></path><path d="M173.78 579.68L194.83 637.11" stroke="hsl(228.5, 77.2%, 51.5%)" stroke-width="1.5"></path><path d="M173.78 579.68L104.78 632.88" stroke="hsl(228.5, 77.2%, 51.5%)" stroke-width="1.5"></path><path d="M194.83 637.11L194.83 637.11" stroke="hsl(228.5, 77.2%, 51.5%)" stroke-width="1.5"></path><path d="M194.83 637.11L256.62 628.05" stroke="hsl(228.5, 77.2%, 51.5%)" stroke-width="1.5"></path><path d="M262.55 416L262.55 416" stroke="hsl(228.5, 77.2%, 51.5%)" stroke-width="1.5"></path><path d="M262.55 416L246.8 479.11" stroke="hsl(228.5, 77.2%, 51.5%)" stroke-width="1.5"></path><path d="M246.8 479.11L246.8 479.11" stroke="hsl(228.5, 77.2%, 51.5%)" stroke-width="1.5"></path><path d="M256.62 628.05L256.62 628.05" stroke="hsl(228.5, 77.2%, 51.5%)" stroke-width="1.5"></path><path d="M256.62 628.05L345.9 646.57" stroke="hsl(228.5, 77.2%, 51.5%)" stroke-width="1.5"></path><path d="M321.33 492.47L321.33 492.47" stroke="hsl(228.5, 77.2%, 51.5%)" stroke-width="1.5"></path><path d="M321.33 492.47L246.8 479.11" stroke="hsl(228.5, 77.2%, 51.5%)" stroke-width="1.5"></path><path d="M321.33 492.47L330.48 571.32" stroke="hsl(228.5, 77.2%, 51.5%)" stroke-width="1.5"></path><path d="M321.33 492.47L400.51 500.97" stroke="hsl(228.5, 77.2%, 51.5%)" stroke-width="1.5"></path><path d="M321.33 492.47L262.55 416" stroke="hsl(228.5, 77.2%, 51.5%)" stroke-width="1.5"></path><path d="M330.48 571.32L330.48 571.32" stroke="hsl(228.5, 77.2%, 51.5%)" stroke-width="1.5"></path><path d="M330.48 571.32L394.44 578.4" stroke="hsl(228.5, 77.2%, 51.5%)" stroke-width="1.5"></path><path d="M330.48 571.32L345.9 646.57" stroke="hsl(228.5, 77.2%, 51.5%)" stroke-width="1.5"></path><path d="M345.9 646.57L345.9 646.57" stroke="hsl(228.5, 77.2%, 51.5%)" stroke-width="1.5"></path><path d="M345.9 646.57L397.03 629.39" stroke="hsl(228.5, 77.2%, 51.5%)" stroke-width="1.5"></path><path d="M420.26 397.16L420.26 397.16" stroke="hsl(228.5, 77.2%, 51.5%)" stroke-width="1.5"></path><path d="M420.26 397.16L501.9 395.67" stroke="hsl(228.5, 77.2%, 51.5%)" stroke-width="1.5"></path><path d="M420.26 397.16L337.5 427.65" stroke="hsl(228.5, 77.2%, 51.5%)" stroke-width="1.5"></path><path d="M420.26 397.16L473.57 478.11" stroke="hsl(228.5, 77.2%, 51.5%)" stroke-width="1.5"></path><path d="M400.51 500.97L400.51 500.97" stroke="hsl(228.5, 77.2%, 51.5%)" stroke-width="1.5"></path><path d="M400.51 500.97L394.44 578.4" stroke="hsl(228.5, 77.2%, 51.5%)" stroke-width="1.5"></path><path d="M400.51 500.97L337.5 427.65" stroke="hsl(228.5, 77.2%, 51.5%)" stroke-width="1.5"></path><path d="M400.51 500.97L330.48 571.32" stroke="hsl(228.5, 77.2%, 51.5%)" stroke-width="1.5"></path><path d="M400.51 500.97L470.7 578.58" stroke="hsl(228.5, 77.2%, 51.5%)" stroke-width="1.5"></path><path d="M394.44 578.4L394.44 578.4" stroke="hsl(228.5, 77.2%, 51.5%)" stroke-width="1.5"></path><path d="M394.44 578.4L397.03 629.39" stroke="hsl(228.5, 77.2%, 51.5%)" stroke-width="1.5"></path><path d="M397.03 629.39L397.03 629.39" stroke="hsl(228.5, 77.2%, 51.5%)" stroke-width="1.5"></path><path d="M397.03 629.39L330.48 571.32" stroke="hsl(228.5, 77.2%, 51.5%)" stroke-width="1.5"></path><path d="M484.1 44.78L484.1 44.78" stroke="hsl(228.5, 77.2%, 51.5%)" stroke-width="1.5"></path><path d="M484.1 44.78L473.09 94.69" stroke="hsl(228.5, 77.2%, 51.5%)" stroke-width="1.5"></path><path d="M484.1 44.78L557.41 54.88" stroke="hsl(228.5, 77.2%, 51.5%)" stroke-width="1.5"></path><path d="M484.1 44.78L565.84 122.7" stroke="hsl(228.5, 77.2%, 51.5%)" stroke-width="1.5"></path><path d="M484.1 44.78L575.55 -27.6" stroke="hsl(228.5, 77.2%, 51.5%)" stroke-width="1.5"></path><path d="M473.09 94.69L473.09 94.69" stroke="hsl(228.5, 77.2%, 51.5%)" stroke-width="1.5"></path><path d="M473.09 94.69L557.41 54.88" stroke="hsl(228.5, 77.2%, 51.5%)" stroke-width="1.5"></path><path d="M473.09 94.69L492.94 186.62" stroke="hsl(228.5, 77.2%, 51.5%)" stroke-width="1.5"></path><path d="M478.02 261.7L478.02 261.7" stroke="hsl(228.5, 77.2%, 51.5%)" stroke-width="1.5"></path><path d="M501.9 395.67L501.9 395.67" stroke="hsl(228.5, 77.2%, 51.5%)" stroke-width="1.5"></path><path d="M501.9 395.67L555.96 407.19" stroke="hsl(228.5, 77.2%, 51.5%)" stroke-width="1.5"></path><path d="M470.7 578.58L470.7 578.58" stroke="hsl(228.5, 77.2%, 51.5%)" stroke-width="1.5"></path><path d="M470.7 578.58L495.25 624.99" stroke="hsl(228.5, 77.2%, 51.5%)" stroke-width="1.5"></path><path d="M470.7 578.58L394.44 578.4" stroke="hsl(228.5, 77.2%, 51.5%)" stroke-width="1.5"></path><path d="M470.7 578.58L397.03 629.39" stroke="hsl(228.5, 77.2%, 51.5%)" stroke-width="1.5"></path><path d="M470.7 578.58L473.57 478.11" stroke="hsl(228.5, 77.2%, 51.5%)" stroke-width="1.5"></path><path d="M470.7 578.58L572.47 580.8" stroke="hsl(228.5, 77.2%, 51.5%)" stroke-width="1.5"></path><path d="M495.25 624.99L495.25 624.99" stroke="hsl(228.5, 77.2%, 51.5%)" stroke-width="1.5"></path><path d="M495.25 624.99L568.05 651.2" stroke="hsl(228.5, 77.2%, 51.5%)" stroke-width="1.5"></path><path d="M575.55 -27.6L575.55 -27.6" stroke="hsl(228.5, 77.2%, 51.5%)" stroke-width="1.5"></path><path d="M575.55 -27.6L557.41 54.88" stroke="hsl(228.5, 77.2%, 51.5%)" stroke-width="1.5"></path><path d="M557.41 54.88L557.41 54.88" stroke="hsl(228.5, 77.2%, 51.5%)" stroke-width="1.5"></path><path d="M557.41 54.88L624.08 99.24" stroke="hsl(228.5, 77.2%, 51.5%)" stroke-width="1.5"></path><path d="M558.15 172.54L558.15 172.54" stroke="hsl(228.5, 77.2%, 51.5%)" stroke-width="1.5"></path><path d="M555.96 407.19L555.96 407.19" stroke="hsl(228.5, 77.2%, 51.5%)" stroke-width="1.5"></path><path d="M555.96 407.19L624.86 406.45" stroke="hsl(228.5, 77.2%, 51.5%)" stroke-width="1.5"></path><path d="M572.47 580.8L572.47 580.8" stroke="hsl(228.5, 77.2%, 51.5%)" stroke-width="1.5"></path><path d="M572.47 580.8L568.05 651.2" stroke="hsl(228.5, 77.2%, 51.5%)" stroke-width="1.5"></path><path d="M572.47 580.8L495.25 624.99" stroke="hsl(228.5, 77.2%, 51.5%)" stroke-width="1.5"></path><path d="M568.05 651.2L568.05 651.2" stroke="hsl(228.5, 77.2%, 51.5%)" stroke-width="1.5"></path><path d="M568.05 651.2L618.8 560.1" stroke="hsl(228.5, 77.2%, 51.5%)" stroke-width="1.5"></path><path d="M568.05 651.2L470.7 578.58" stroke="hsl(228.5, 77.2%, 51.5%)" stroke-width="1.5"></path><path d="M624.08 99.24L624.08 99.24" stroke="hsl(228.5, 77.2%, 51.5%)" stroke-width="1.5"></path><path d="M624.08 99.24L558.15 172.54" stroke="hsl(228.5, 77.2%, 51.5%)" stroke-width="1.5"></path><path d="M624.08 99.24L627.46 204.3" stroke="hsl(228.5, 77.2%, 51.5%)" stroke-width="1.5"></path><path d="M624.08 99.24L575.55 -27.6" stroke="hsl(228.5, 77.2%, 51.5%)" stroke-width="1.5"></path><path d="M627.46 204.3L627.46 204.3" stroke="hsl(228.5, 77.2%, 51.5%)" stroke-width="1.5"></path><path d="M627.46 204.3L558.15 172.54" stroke="hsl(228.5, 77.2%, 51.5%)" stroke-width="1.5"></path><path d="M627.46 204.3L565.84 122.7" stroke="hsl(228.5, 77.2%, 51.5%)" stroke-width="1.5"></path><path d="M637.85 338.64L637.85 338.64" stroke="hsl(228.5, 77.2%, 51.5%)" stroke-width="1.5"></path><path d="M637.85 338.64L624.86 406.45" stroke="hsl(228.5, 77.2%, 51.5%)" stroke-width="1.5"></path><path d="M637.85 338.64L570.78 264.17" stroke="hsl(228.5, 77.2%, 51.5%)" stroke-width="1.5"></path><path d="M637.85 338.64L555.96 407.19" stroke="hsl(228.5, 77.2%, 51.5%)" stroke-width="1.5"></path><path d="M637.85 338.64L506.11 324.11" stroke="hsl(228.5, 77.2%, 51.5%)" stroke-width="1.5"></path><path d="M624.86 406.45L624.86 406.45" stroke="hsl(228.5, 77.2%, 51.5%)" stroke-width="1.5"></path><path d="M643.98 502.62L643.98 502.62" stroke="hsl(228.5, 77.2%, 51.5%)" stroke-width="1.5"></path><circle r="25" cx="-47.1" cy="634.13" fill="url(#SvgjsRadialGradient1016)"></circle><circle r="25" cx="130.52" cy="479.32" fill="url(#SvgjsRadialGradient1016)"></circle><circle r="25" cx="264.61" cy="544.36" fill="url(#SvgjsRadialGradient1016)"></circle><circle r="25" cx="344.17" cy="339.42" fill="url(#SvgjsRadialGradient1016)"></circle><circle r="25" cx="337.5" cy="427.65" fill="url(#SvgjsRadialGradient1016)"></circle><circle r="25" cx="498.95" cy="-22.6" fill="url(#SvgjsRadialGradient1016)"></circle><circle r="25" cx="492.94" cy="186.62" fill="url(#SvgjsRadialGradient1016)"></circle><circle r="25" cx="506.11" cy="324.11" fill="url(#SvgjsRadialGradient1016)"></circle><circle r="25" cx="473.57" cy="478.11" fill="url(#SvgjsRadialGradient1016)"></circle><circle r="25" cx="565.84" cy="122.7" fill="url(#SvgjsRadialGradient1016)"></circle><circle r="25" cx="570.78" cy="264.17" fill="url(#SvgjsRadialGradient1016)"></circle><circle r="25" cx="556.14" cy="479.89" fill="url(#SvgjsRadialGradient1016)"></circle><circle r="25" cx="629.67" cy="-53.1" fill="url(#SvgjsRadialGradient1016)"></circle><circle r="25" cx="637.57" cy="52.02" fill="url(#SvgjsRadialGradient1016)"></circle><circle r="25" cx="655.06" cy="276.34" fill="url(#SvgjsRadialGradient1016)"></circle><circle r="25" cx="618.8" cy="560.1" fill="url(#SvgjsRadialGradient1016)"></circle><circle r="25" cx="644.31" cy="640.71" fill="url(#SvgjsRadialGradient1016)"></circle><circle r="5" cx="-49" cy="470.41" fill="#8b9ad9"></circle><circle r="5" cx="-48.36" cy="562.58" fill="#8b9ad9"></circle><circle r="5" cx="30.34" cy="475.76" fill="#8b9ad9"></circle><circle r="5" cx="35.26" cy="580.36" fill="#8b9ad9"></circle><circle r="5" cx="53.26" cy="625.57" fill="#8b9ad9"></circle><circle r="5" cx="111.22" cy="569.62" fill="#8b9ad9"></circle><circle r="5" cx="104.78" cy="632.88" fill="#8b9ad9"></circle><circle r="5" cx="197.7" cy="430.47" fill="#8b9ad9"></circle><circle r="5" cx="204.15" cy="473.36" fill="#8b9ad9"></circle><circle r="5" cx="173.78" cy="579.68" fill="#8b9ad9"></circle><circle r="5" cx="194.83" cy="637.11" fill="#8b9ad9"></circle><circle r="5" cx="262.55" cy="416" fill="#8b9ad9"></circle><circle r="5" cx="246.8" cy="479.11" fill="#8b9ad9"></circle><circle r="5" cx="256.62" cy="628.05" fill="#8b9ad9"></circle><circle r="5" cx="321.33" cy="492.47" fill="#8b9ad9"></circle><circle r="5" cx="330.48" cy="571.32" fill="#8b9ad9"></circle><circle r="5" cx="345.9" cy="646.57" fill="#8b9ad9"></circle><circle r="5" cx="420.26" cy="397.16" fill="#8b9ad9"></circle><circle r="5" cx="400.51" cy="500.97" fill="#8b9ad9"></circle><circle r="5" cx="394.44" cy="578.4" fill="#8b9ad9"></circle><circle r="5" cx="397.03" cy="629.39" fill="#8b9ad9"></circle><circle r="5" cx="484.1" cy="44.78" fill="#8b9ad9"></circle><circle r="5" cx="473.09" cy="94.69" fill="#8b9ad9"></circle><circle r="5" cx="478.02" cy="261.7" fill="#8b9ad9"></circle><circle r="5" cx="501.9" cy="395.67" fill="#8b9ad9"></circle><circle r="5" cx="470.7" cy="578.58" fill="#8b9ad9"></circle><circle r="5" cx="495.25" cy="624.99" fill="#8b9ad9"></circle><circle r="5" cx="575.55" cy="-27.6" fill="#8b9ad9"></circle><circle r="5" cx="557.41" cy="54.88" fill="#8b9ad9"></circle><circle r="5" cx="558.15" cy="172.54" fill="#8b9ad9"></circle><circle r="5" cx="555.96" cy="407.19" fill="#8b9ad9"></circle><circle r="5" cx="572.47" cy="580.8" fill="#8b9ad9"></circle><circle r="5" cx="568.05" cy="651.2" fill="#8b9ad9"></circle><circle r="5" cx="624.08" cy="99.24" fill="#8b9ad9"></circle><circle r="5" cx="627.46" cy="204.3" fill="#8b9ad9"></circle><circle r="5" cx="637.85" cy="338.64" fill="#8b9ad9"></circle><circle r="5" cx="624.86" cy="406.45" fill="#8b9ad9"></circle><circle r="5" cx="643.98" cy="502.62" fill="#8b9ad9"></circle></g><defs><mask id="SvgjsMask1014"><rect width="600" height="560" fill="#ffffff"></rect></mask><linearGradient x1="1.67%" y1="-1.79%" x2="98.33%" y2="101.79%" gradientUnits="userSpaceOnUse" id="SvgjsLinearGradient1015"><stop stop-color="#0e2a47" offset="0"></stop><stop stop-color="#00459e" offset="1"></stop></linearGradient><radialGradient id="SvgjsRadialGradient1016"><stop stop-color="#ffffff" offset="0.1"></stop><stop stop-color="#1735b3" offset="0.2"></stop><stop stop-color="rgba(23, 53, 179, 0)" offset="1"></stop></radialGradient></defs></svg>