<svg xmlns="http://www.w3.org/2000/svg" version="1.1" xmlns:xlink="http://www.w3.org/1999/xlink" xmlns:svgjs="http://svgjs.com/svgjs" width="600" height="600" preserveAspectRatio="none" viewBox="0 0 600 600"><g mask="url(&quot;#SvgjsMask1545&quot;)" fill="none"><path d="M0 0L18.78 0L0 218.1z" fill="rgba(255, 255, 255, .1)"></path><path d="M0 218.1L18.78 0L192.87 0L0 418.27z" fill="rgba(255, 255, 255, .075)"></path><path d="M0 418.27L192.87 0L437.34000000000003 0L0 487.99z" fill="rgba(255, 255, 255, .05)"></path><path d="M0 487.99L437.34000000000003 0L445.16 0L0 539.08z" fill="rgba(255, 255, 255, .025)"></path><path d="M600 600L450.33000000000004 600L600 310.21z" fill="rgba(0, 0, 0, .1)"></path><path d="M600 310.21L450.33000000000004 600L334.88000000000005 600L600 281.78999999999996z" fill="rgba(0, 0, 0, .075)"></path><path d="M600 281.78999999999996L334.88 600L328.15 600L600 249.86999999999995z" fill="rgba(0, 0, 0, .05)"></path><path d="M600 249.86999999999995L328.15 600L203.74999999999997 600L600 179.90999999999997z" fill="rgba(0, 0, 0, .025)"></path></g><defs><mask id="SvgjsMask1545"><rect width="600" height="600" fill="#ffffff"></rect></mask></defs></svg>